<?xml version="1.0" encoding="UTF-8"?>
<svg version="1.1" xmlns="http://www.w3.org/2000/svg" width="428" height="80">
<path d="M0 0 C141.24 0 282.48 0 428 0 C428 26.4 428 52.8 428 80 C286.76 80 145.52 80 0 80 C0 53.6 0 27.2 0 0 Z " fill="#040404" transform="translate(0,0)"/>
<path d="M0 0 C36.47092084 0 36.47092084 0 47.76171875 10.60546875 C55.24893453 18.6153523 56.53506545 29.1924321 56.30078125 39.796875 C55.37954666 49.60742518 50.20764477 56.52613844 43 63 C29.9553265 71.68880713 15.96105475 68 0 68 C0 45.56 0 23.12 0 0 Z " fill="#4BA18F" transform="translate(184,6)"/>
<path d="M0 0 C11.1065625 -0.0309375 11.1065625 -0.0309375 22.4375 -0.0625 C24.7777124 -0.071604 27.1179248 -0.08070801 29.52905273 -0.09008789 C31.37223249 -0.09300694 33.21541288 -0.09555552 35.05859375 -0.09765625 C36.50836609 -0.1053302 36.50836609 -0.1053302 37.98742676 -0.11315918 C38.90092896 -0.11328003 39.81443115 -0.11340088 40.75561523 -0.11352539 C41.95141457 -0.11685631 41.95141457 -0.11685631 43.17137146 -0.12025452 C45 0 45 0 46 1 C46.0979057 2.49738124 46.12974864 3.99942892 46.125 5.5 C46.12886719 6.72203125 46.12886719 6.72203125 46.1328125 7.96875 C46 10 46 10 45 11 C42.47905924 11.08847743 39.98569107 11.11527301 37.46484375 11.09765625 C36.33496788 11.09553383 36.33496788 11.09553383 35.18226624 11.09336853 C32.7673044 11.08775376 30.35243399 11.07519883 27.9375 11.0625 C26.30403779 11.0574869 24.67057414 11.05292366 23.03710938 11.04882812 C19.0246757 11.03862875 15.01244064 11.01905645 11 11 C11 16.94 11 22.88 11 29 C21.23 29 31.46 29 42 29 C42 32.3 42 35.6 42 39 C31.77 39 21.54 39 11 39 C11 45.27 11 51.54 11 58 C22.88 58 34.76 58 47 58 C47 61.3 47 64.6 47 68 C31.49 68 15.98 68 0 68 C0 45.56 0 23.12 0 0 Z " fill="#479987" transform="translate(254,6)"/>
<path d="M0 0 C10.17331525 -1.03708554 10.17331525 -1.03708554 13.81640625 1.03125 C15.50151487 2.91319467 16.71377733 4.81843272 18 7 C18.76112551 8.25686986 19.52290286 9.5133451 20.28515625 10.76953125 C21.51989236 12.81339275 22.74184634 14.86079223 23.93041992 16.93188477 C25.8413336 20.57171628 25.8413336 20.57171628 29 23 C29.24878906 22.33226563 29.49757813 21.66453125 29.75390625 20.9765625 C31.28256827 17.325025 33.07879882 13.86731194 34.9375 10.375 C35.28490234 9.70726562 35.63230469 9.03953125 35.99023438 8.3515625 C39.60727021 1.53981893 39.60727021 1.53981893 42 0 C44.91796875 -0.29296875 44.91796875 -0.29296875 48.1875 -0.1875 C49.27417969 -0.16042969 50.36085937 -0.13335938 51.48046875 -0.10546875 C52.72763672 -0.05326172 52.72763672 -0.05326172 54 0 C52.63389473 4.77052634 50.54094394 8.64962016 47.8125 12.75 C47.21900757 13.66362305 47.21900757 13.66362305 46.61352539 14.59570312 C43.66153118 19.10821507 40.52248999 23.45856165 37.21484375 27.71875 C35.58484472 30.77958419 35.52824721 32.56478196 36 36 C37.22695128 38.36978533 38.42908696 40.3923236 39.9375 42.5625 C40.33702881 43.16312256 40.73655762 43.76374512 41.14819336 44.38256836 C43.23981814 47.50673121 45.40369649 50.57490023 47.6015625 53.625 C48.22043335 54.49209595 48.22043335 54.49209595 48.85180664 55.37670898 C50.00382577 56.98080096 51.17525456 58.57090063 52.34765625 60.16015625 C54.08075242 63.13878726 54.38999729 64.6262139 54 68 C43.80753138 69.35564854 43.80753138 69.35564854 39.890625 66.41796875 C38.02022142 64.03706511 36.49860747 61.63179095 35 59 C34.39414063 57.96746094 33.78828125 56.93492188 33.1640625 55.87109375 C31.97599185 53.82831405 30.81098388 51.77184408 29.67578125 49.69921875 C28.03012741 47.0485269 26.29125397 45.1015641 24 43 C23.649375 44.2375 23.29875 45.475 22.9375 46.75 C20.2627133 54.74900666 16.25540428 63.32086977 9 68 C6.54296875 68.390625 6.54296875 68.390625 4.1875 68.25 C3.39730469 68.21390625 2.60710938 68.1778125 1.79296875 68.140625 C1.20128906 68.09421875 0.60960937 68.0478125 0 68 C0.52699616 63.43982714 1.66967623 60.37488442 4.08984375 56.48828125 C4.70923828 55.48345703 5.32863281 54.47863281 5.96679688 53.44335938 C6.61712891 52.41017578 7.26746094 51.37699219 7.9375 50.3125 C8.58396484 49.26771484 9.23042969 48.22292969 9.89648438 47.14648438 C12.22009845 43.39926458 14.55414453 39.66878321 17 36 C17.87828897 30.21165747 15.5190077 26.86949736 12.4375 22.25 C11.98584473 21.54842773 11.53418945 20.84685547 11.06884766 20.12402344 C7.94006819 15.29942554 4.6560137 10.59732681 1.1796875 6.015625 C0 4 0 4 0 0 Z " fill="#F1F1F1" transform="translate(61,6)"/>
<path d="M0 0 C14.85 0 29.7 0 45 0 C45 3.3 45 6.6 45 10 C33.45 10 21.9 10 10 10 C10 16.27 10 22.54 10 29 C20.56 29 31.12 29 42 29 C42 32.3 42 35.6 42 39 C31.44 39 20.88 39 10 39 C10 45.6 10 52.2 10 59 C21.88 59 33.76 59 46 59 C46 61.64 46 64.28 46 67 C30.82 67 15.64 67 0 67 C0 44.89 0 22.78 0 0 Z " fill="#F0F0F0" transform="translate(4,6)"/>
<path d="M0 0 C22 0 22 0 29 4 C30.9609375 6.25390625 30.9609375 6.25390625 32.375 8.5625 C32.85710937 9.32691406 33.33921875 10.09132813 33.8359375 10.87890625 C36.1312612 15.06132494 36.194113 18.60402026 36.25 23.3125 C36.27578125 24.60800781 36.3015625 25.90351562 36.328125 27.23828125 C35.75348538 33.82611401 32.85979793 37.70529485 28 42 C17.98720339 49.20921356 15.40085402 47 0 47 C0 31.49 0 15.98 0 0 Z " fill="#080808" transform="translate(193,17)"/>
<path d="M0 0 C0.70318359 -0.00386719 1.40636719 -0.00773438 2.13085938 -0.01171875 C8.38500706 0.12586103 13.10554314 1.9328175 18.3125 5.4375 C17.6525 8.0775 16.9925 10.7175 16.3125 13.4375 C14.95318359 13.2209375 14.95318359 13.2209375 13.56640625 13 C1.41180499 10.98214188 1.41180499 10.98214188 -10.6875 12.4375 C-10.80070856 17.52053686 -10.80070856 17.52053686 -9.6875 22.4375 C-7.5961172 23.85763837 -7.5961172 23.85763837 -4.98828125 25.109375 C-4.02599609 25.60953125 -3.06371094 26.1096875 -2.07226562 26.625 C-0.0459146 27.65556632 1.98269171 28.68171177 4.01367188 29.703125 C10.61401292 33.14601747 15.90906359 36.63062718 19.3125 43.4375 C19.87740993 49.9882824 19.80566728 55.69067642 16.3125 61.4375 C11.97042499 65.96836088 7.95608918 69.19893896 1.58984375 69.7734375 C0.14347536 69.80313226 -1.30332964 69.81535966 -2.75 69.8125 C-3.5042627 69.81233887 -4.25852539 69.81217773 -5.03564453 69.81201172 C-12.75188076 69.65561265 -19.24230003 67.73429998 -25.6875 63.4375 C-24.8125 57.6875 -24.8125 57.6875 -23.6875 55.4375 C-19.96236638 55.15811498 -17.26677276 55.48970922 -13.875 56.9375 C-8.47540314 59.12009566 -3.31799849 59.22105274 2.25 57.5625 C4.44946824 56.48864265 4.44946824 56.48864265 6.3125 54.4375 C6.55537489 51.99737051 6.55537489 51.99737051 6.4375 49.3125 C6.41945313 48.40242188 6.40140625 47.49234375 6.3828125 46.5546875 C6.35960937 45.85601562 6.33640625 45.15734375 6.3125 44.4375 C3.78122903 43.15551263 1.23042979 41.92105683 -1.33203125 40.703125 C-17.78108831 32.79711754 -17.78108831 32.79711754 -22.6875 25.4375 C-22.953125 22.9140625 -22.953125 22.9140625 -22.9375 20.0625 C-22.94265625 19.12664063 -22.9478125 18.19078125 -22.953125 17.2265625 C-22.46050567 12.05405953 -20.80576124 9.09452916 -16.875 5.75 C-16.20855469 5.16863281 -15.54210937 4.58726563 -14.85546875 3.98828125 C-10.13905323 0.614557 -5.69982262 0.02156981 0 0 Z " fill="#4EA592" transform="translate(403.6875,5.5625)"/>
<path d="M0 0 C3.96 0 7.92 0 12 0 C18 14 24 28 30 42 C32.3813208 38.42801879 33.71607979 34.68464419 35.1875 30.68359375 C35.80982276 29.01624877 36.43222087 27.34893191 37.0546875 25.68164062 C38.03074109 23.05314112 39.00499623 20.42398997 39.97753906 17.79418945 C40.91792161 15.25558359 41.86487636 12.71950374 42.8125 10.18359375 C43.24695435 8.9991996 43.24695435 8.9991996 43.69018555 7.7908783 C45.773756 2.226244 45.773756 2.226244 48 0 C50.6015625 -0.1953125 50.6015625 -0.1953125 53.625 -0.125 C55.12933594 -0.09792969 55.12933594 -0.09792969 56.6640625 -0.0703125 C57.43492187 -0.04710937 58.20578125 -0.02390625 59 0 C58.53616063 7.2422193 55.56307039 13.44727871 52.75 20.0625 C52.21573018 21.33112386 51.68188362 22.59992605 51.1484375 23.86889648 C50.02463919 26.53617012 48.89448174 29.20063472 47.75976562 31.86328125 C46.27429793 35.34964208 44.80412448 38.84223724 43.33721924 42.33644104 C42.18036784 45.08571017 41.01406851 47.83089165 39.84484863 50.57492065 C39.28481721 51.89244292 38.72773249 53.21122188 38.17370605 54.53128052 C37.39610452 56.38033233 36.60457215 58.22350677 35.8125 60.06640625 C35.36519531 61.11771729 34.91789062 62.16902832 34.45703125 63.25219727 C32.96369642 66.06846461 31.36567769 67.88729025 29 70 C28.75354736 69.47680176 28.50709473 68.95360352 28.25317383 68.41455078 C27.10748177 65.98413286 25.96018069 63.55447949 24.8125 61.125 C24.3997583 60.25037109 23.9870166 59.37574219 23.56176758 58.47460938 C21.49856552 54.11530889 19.40579154 49.78311636 17.1875 45.5 C15.10494442 41.39175042 13.5480595 37.18587344 12.0234375 32.84375 C8.94364334 24.28615402 5.1484808 16.06504788 1.13671875 7.91015625 C0 5 0 5 0 0 Z " fill="#52A694" transform="translate(310,6)"/>
<path d="M0 0 C14.85 0 29.7 0 45 0 C45 2.97 45 5.94 45 9 C39.39 9 33.78 9 28 9 C28 27.81 28 46.62 28 66 C24.7 66 21.4 66 18 66 C18 47.19 18 28.38 18 9 C12.06 9 6.12 9 0 9 C0 6.03 0 3.06 0 0 Z " fill="#F5F5F5" transform="translate(124,7)"/>
</svg>
