<?xml version="1.0" encoding="UTF-8"?>
<svg version="1.1" xmlns="http://www.w3.org/2000/svg" width="348" height="71">
<path d="M0 0 C114.84 0 229.68 0 348 0 C348 23.43 348 46.86 348 71 C233.16 71 118.32 71 0 71 C0 47.57 0 24.14 0 0 Z " fill="#030303" transform="translate(0,0)"/>
<path d="M0 0 C28.77528626 0 28.77528626 0 37.56640625 8.28515625 C43.29243344 15.13454573 44.42055916 22.65729682 44.33984375 31.34765625 C43.68664566 38.36765876 40.77995546 43.67818446 35.625 48.4375 C24.97562295 57.22454756 14.09013431 54 0 54 C0 36.18 0 18.36 0 0 Z " fill="#FAFAFA" transform="translate(149,6)"/>
<path d="M0 0 C11.88 0 23.76 0 36 0 C36 2.64 36 5.28 36 8 C26.76 8 17.52 8 8 8 C8 12.95 8 17.9 8 23 C16.25 23 24.5 23 33 23 C33 25.64 33 28.28 33 31 C24.75 31 16.5 31 8 31 C8 36.28 8 41.56 8 47 C17.57 47 27.14 47 37 47 C37 49.31 37 51.62 37 54 C24.79 54 12.58 54 0 54 C0 36.18 0 18.36 0 0 Z " fill="#F8F8F8" transform="translate(205,6)"/>
<path d="M0 0 C11.88 0 23.76 0 36 0 C36 2.64 36 5.28 36 8 C26.76 8 17.52 8 8 8 C8 12.95 8 17.9 8 23 C16.25 23 24.5 23 33 23 C33 25.64 33 28.28 33 31 C24.75 31 16.5 31 8 31 C8 36.28 8 41.56 8 47 C17.57 47 27.14 47 37 47 C37 49.31 37 51.62 37 54 C24.79 54 12.58 54 0 54 C0 36.18 0 18.36 0 0 Z " fill="#F8F8F8" transform="translate(5,6)"/>
<path d="M0 0 C17.99029126 0 17.99029126 0 23 4 C28.48244443 9.77099413 29.41259908 14.29268671 29.2421875 22.09375 C28.71123268 28.46520782 25.62173635 31.70562722 21.01171875 35.703125 C14.02768187 40.20545557 8.53193986 39 0 39 C0 26.13 0 13.26 0 0 Z " fill="#080808" transform="translate(156,14)"/>
<path d="M0 0 C3.47600008 -0.55815497 6.54036752 -0.73107042 10 0 C12.93126599 2.53312888 14.66503982 5.58978397 16.5625 8.9375 C17.34077148 10.21270508 17.34077148 10.21270508 18.13476562 11.51367188 C19.08776454 13.0770884 20.02574716 14.64982727 20.94360352 16.23413086 C21.87849829 17.95976455 21.87849829 17.95976455 23 19 C23.28085449 18.42443359 23.56170898 17.84886719 23.85107422 17.25585938 C25.15225638 14.64821641 26.51197745 12.07581951 27.875 9.5 C28.31585938 8.59378906 28.75671875 7.68757812 29.2109375 6.75390625 C30.63106669 4.13061205 31.8442554 2.06842617 34 0 C37.46902327 -0.78788425 40.51048005 -0.59094619 44 0 C41.59082995 4.56911561 39.06882835 8.94599315 36.1484375 13.20703125 C35.6428833 13.953479 35.1373291 14.69992676 34.61645508 15.46899414 C33.58714116 16.97989436 32.54279545 18.48067134 31.4831543 19.97045898 C31.00531494 20.67630127 30.52747559 21.38214355 30.03515625 22.109375 C29.5956665 22.73811523 29.15617676 23.36685547 28.70336914 24.01464844 C27.76651698 26.05750677 27.76651698 26.05750677 28.66918945 28.42993164 C30.04996127 31.09648547 31.56066984 33.53436519 33.2578125 36.01171875 C33.88300781 36.93404297 34.50820312 37.85636719 35.15234375 38.80664062 C36.12880859 40.23266602 36.12880859 40.23266602 37.125 41.6875 C38.42346426 43.58437587 39.71795558 45.48397951 41.0078125 47.38671875 C41.58160645 48.22420654 42.15540039 49.06169434 42.74658203 49.92456055 C44 52 44 52 44 54 C40.54230838 54.51065476 37.44191846 54.68554073 34 54 C31.26521295 51.66254361 29.74881612 48.83376402 28.0625 45.6875 C27.1602082 44.12736708 26.25535144 42.56871414 25.34765625 41.01171875 C24.96617432 40.31522217 24.58469238 39.61872559 24.19165039 38.90112305 C22.98228336 36.97173541 21.66815645 35.53995247 20 34 C19.75378906 34.66386719 19.50757812 35.32773437 19.25390625 36.01171875 C16.64372441 42.23224555 13.60039347 48.98810345 9 54 C5.69432859 55.2446052 3.33720712 55.0650661 0 54 C1.74746853 48.86161039 4.65364782 44.45711216 7.5 39.875 C8.24830078 38.65876953 8.24830078 38.65876953 9.01171875 37.41796875 C10.96670179 34.2470177 12.93340407 31.0998939 15 28 C14.90489572 22.75975402 11.43523017 18.63483096 8.625 14.4375 C8.13 13.68275391 7.635 12.92800781 7.125 12.15039062 C5.26466561 9.32755703 3.42321436 6.53859701 1.33349609 3.87915039 C0 2 0 2 0 0 Z " fill="#F7F7F7" transform="translate(50,6)"/>
<path d="M0 0 C2.11576398 0.94705626 4.14300719 1.94079663 6.1484375 3.1015625 C5.4884375 5.0815625 4.8284375 7.0615625 4.1484375 9.1015625 C3.60316406 8.9571875 3.05789063 8.8128125 2.49609375 8.6640625 C-2.90464818 7.3346491 -8.28419164 6.34135925 -13.8515625 7.1015625 C-17.19859508 8.82594327 -17.19859508 8.82594327 -17.5390625 12.4140625 C-17.23960773 15.995466 -17.23960773 15.995466 -15.41015625 17.49609375 C-12.47630909 19.3630874 -9.41690914 20.83727791 -6.26953125 22.30859375 C-0.76804684 24.90674606 2.98387164 26.79325848 6.1484375 32.1015625 C7.61434279 36.79594969 7.63453503 40.80019335 5.7109375 45.3515625 C3.12150314 49.74043429 -0.03380852 52.4094733 -4.8515625 54.1015625 C-13.4801372 55.32247647 -21.58386629 53.94669331 -28.8515625 49.1015625 C-27.8615625 46.1315625 -27.8615625 46.1315625 -26.8515625 43.1015625 C-23.8515625 43.1015625 -23.8515625 43.1015625 -20.7265625 44.6015625 C-16.51783494 46.48700096 -12.4010833 46.74909134 -7.8515625 46.1015625 C-4.67709682 44.8542632 -4.67709682 44.8542632 -2.8515625 42.1015625 C-2.35125044 38.68584397 -2.35125044 38.68584397 -2.8515625 35.1015625 C-6.87667477 31.21238273 -11.72866006 29.09061259 -16.76757812 26.83398438 C-20.88581896 24.88839384 -23.45804699 22.99757679 -25.8515625 19.1015625 C-26.87916363 14.57744845 -26.91228127 10.02796466 -24.640625 5.90234375 C-18.26612332 -1.8150098 -9.48817857 -2.98942613 0 0 Z " fill="#F6F6F6" transform="translate(332.8515625,6.8984375)"/>
<path d="M0 0 C2.97 0 5.94 0 9 0 C9.31227539 0.77077881 9.62455078 1.54155762 9.94628906 2.33569336 C11.12299079 5.23803557 12.30104838 8.13982289 13.47998047 11.04125977 C14.23377073 12.897534 14.98604278 14.7544245 15.73828125 16.61132812 C18.38656961 23.12611749 21.09769067 29.59418868 24 36 C24.38857178 34.94498291 24.77714355 33.88996582 25.17749023 32.80297852 C26.61530118 28.90139498 28.05672681 25.00115534 29.49926758 21.10131836 C30.1239587 19.41092986 30.74765937 17.72017501 31.37036133 16.02905273 C32.26385593 13.60304074 33.16086523 11.17835417 34.05859375 8.75390625 C34.3377916 7.99348526 34.61698944 7.23306427 34.90464783 6.44960022 C36.88612829 1.11387171 36.88612829 1.11387171 38 0 C41.00003445 -0.14177857 43.99757235 -0.04228771 47 0 C44.88632105 6.70856619 42.35899211 13.17614562 39.62109375 19.65234375 C39.20835709 20.6336879 38.79562042 21.61503204 38.37037659 22.62611389 C37.50392346 24.68318824 36.63572912 26.73952998 35.76586914 28.79516602 C34.4321778 31.95008998 33.10743164 35.10867251 31.78320312 38.26757812 C30.93803718 40.27106003 30.09235256 42.27432322 29.24609375 44.27734375 C28.85022568 45.22310776 28.4543576 46.16887177 28.04649353 47.14329529 C27.67593338 48.01502884 27.30537323 48.88676239 26.92358398 49.78491211 C26.59954086 50.55274521 26.27549774 51.32057831 25.94163513 52.11167908 C25 54 25 54 23 56 C19.06443125 48.49362253 15.869075 40.69587125 12.625 32.875 C11.79044162 30.86933639 10.95506107 28.8640186 10.11907959 26.85894775 C9.56786822 25.53622691 9.01760819 24.21310919 8.46832275 22.8895874 C7.09065092 19.57760969 5.69124938 16.27759809 4.24902344 12.99316406 C3.96956879 12.35396027 3.69011414 11.71475647 3.40219116 11.05618286 C2.63242425 9.30129159 1.85621201 7.54923157 1.07958984 5.79736328 C0 3 0 3 0 0 Z " fill="#F7F7F7" transform="translate(250,6)"/>
<path d="M0 0 C11.88 0 23.76 0 36 0 C36 2.64 36 5.28 36 8 C31.38 8 26.76 8 22 8 C22 23.18 22 38.36 22 54 C19.36 54 16.72 54 14 54 C14 38.82 14 23.64 14 8 C9.38 8 4.76 8 0 8 C0 5.36 0 2.72 0 0 Z " fill="#FAFAFA" transform="translate(101,6)"/>
</svg>
