<?xml version="1.0" encoding="UTF-8"?>
<svg version="1.1" xmlns="http://www.w3.org/2000/svg" width="357" height="143">
<path d="M0 0 C117.81 0 235.62 0 357 0 C357 47.19 357 94.38 357 143 C239.19 143 121.38 143 0 143 C0 95.81 0 48.62 0 0 Z " fill="#262626" transform="translate(0,0)"/>
<path d="M0 0 C28.77528626 0 28.77528626 0 37.56640625 8.28515625 C43.29243344 15.13454573 44.42055916 22.65729682 44.33984375 31.34765625 C43.68664566 38.36765876 40.77995546 43.67818446 35.625 48.4375 C24.97562295 57.22454756 14.09013431 54 0 54 C0 36.18 0 18.36 0 0 Z " fill="#FAFAFA" transform="translate(154,24)"/>
<path d="M0 0 C11.88 0 23.76 0 36 0 C36 2.64 36 5.28 36 8 C26.76 8 17.52 8 8 8 C8 12.95 8 17.9 8 23 C16.25 23 24.5 23 33 23 C33 25.64 33 28.28 33 31 C24.75 31 16.5 31 8 31 C8 36.28 8 41.56 8 47 C17.57 47 27.14 47 37 47 C37 49.31 37 51.62 37 54 C24.79 54 12.58 54 0 54 C0 36.18 0 18.36 0 0 Z " fill="#F8F8F8" transform="translate(210,24)"/>
<path d="M0 0 C11.88 0 23.76 0 36 0 C36 2.64 36 5.28 36 8 C26.76 8 17.52 8 8 8 C8 12.95 8 17.9 8 23 C16.25 23 24.5 23 33 23 C33 25.64 33 28.28 33 31 C24.75 31 16.5 31 8 31 C8 36.28 8 41.56 8 47 C17.57 47 27.14 47 37 47 C37 49.31 37 51.62 37 54 C24.79 54 12.58 54 0 54 C0 36.18 0 18.36 0 0 Z " fill="#F8F8F8" transform="translate(10,24)"/>
<path d="M0 0 C17.99029126 0 17.99029126 0 23 4 C28.40899791 9.69368201 29.47377724 14.24466046 29.3046875 21.95703125 C28.77109408 27.28612453 27.28872776 31.12399364 23.09375 34.5625 C15.2489321 39.71432071 10.18396186 39 0 39 C0 26.13 0 13.26 0 0 Z " fill="#292929" transform="translate(161,32)"/>
<path d="M0 0 C3.47600008 -0.55815497 6.54036752 -0.73107042 10 0 C12.93126599 2.53312888 14.66503982 5.58978397 16.5625 8.9375 C17.34077148 10.21270508 17.34077148 10.21270508 18.13476562 11.51367188 C19.08776454 13.0770884 20.02574716 14.64982727 20.94360352 16.23413086 C21.87849829 17.95976455 21.87849829 17.95976455 23 19 C23.28085449 18.42443359 23.56170898 17.84886719 23.85107422 17.25585938 C25.15225638 14.64821641 26.51197745 12.07581951 27.875 9.5 C28.31585938 8.59378906 28.75671875 7.68757813 29.2109375 6.75390625 C30.63106669 4.13061205 31.8442554 2.06842617 34 0 C37.46902327 -0.78788425 40.51048005 -0.59094619 44 0 C41.59082995 4.56911561 39.06882835 8.94599315 36.1484375 13.20703125 C35.6428833 13.953479 35.1373291 14.69992676 34.61645508 15.46899414 C33.58714116 16.97989436 32.54279545 18.48067134 31.4831543 19.97045898 C28.62868757 23.91927664 28.62868757 23.91927664 28.37890625 28.55078125 C29.18134766 29.76314453 29.18134766 29.76314453 30 31 C30.34909424 31.55768066 30.69818848 32.11536133 31.05786133 32.68994141 C32.29065565 34.63506772 33.57497363 36.53673259 34.875 38.4375 C35.30941406 39.08009766 35.74382812 39.72269531 36.19140625 40.38476562 C38.68430762 44.07365663 38.68430762 44.07365663 41.21191406 47.73876953 C44 51.78579295 44 51.78579295 44 54 C40.51096474 54.59092708 37.47037476 54.77569303 34 54 C31.0622591 51.29635098 29.36211581 48.06397852 27.5 44.5625 C26.49285925 42.79110219 25.48259954 41.02147288 24.46875 39.25390625 C24.04013672 38.46314697 23.61152344 37.6723877 23.16992188 36.85766602 C22.12866427 34.84828216 22.12866427 34.84828216 20 34 C19.75378906 34.66386719 19.50757812 35.32773437 19.25390625 36.01171875 C16.64372441 42.23224555 13.60039347 48.98810345 9 54 C5.69432859 55.2446052 3.33720712 55.0650661 0 54 C1.37661456 50.25123631 3.09909196 47.05504795 5.2578125 43.69921875 C5.88300781 42.72275391 6.50820313 41.74628906 7.15234375 40.74023438 C7.80332031 39.73283203 8.45429687 38.72542969 9.125 37.6875 C9.78371094 36.66076172 10.44242188 35.63402344 11.12109375 34.57617188 C12.7436217 32.04832035 14.37002986 29.52305663 16 27 C11.78659178 19.6157301 7.41990864 12.50036913 2.6015625 5.49609375 C1 3 1 3 0 0 Z " fill="#F8F8F8" transform="translate(55,24)"/>
<path d="M0 0 C2.11576398 0.94705626 4.14300719 1.94079663 6.1484375 3.1015625 C5.4884375 5.0815625 4.8284375 7.0615625 4.1484375 9.1015625 C3.0346875 8.7715625 1.9209375 8.4415625 0.7734375 8.1015625 C-4.04682216 6.89864565 -8.90772001 6.50443765 -13.8515625 7.1015625 C-17.19859508 8.82594327 -17.19859508 8.82594327 -17.5390625 12.4140625 C-17.23960773 15.995466 -17.23960773 15.995466 -15.41015625 17.49609375 C-12.47630909 19.3630874 -9.41690914 20.83727791 -6.26953125 22.30859375 C-0.76804684 24.90674606 2.98387164 26.79325848 6.1484375 32.1015625 C7.64006984 36.87833751 7.62215699 40.81973533 5.5859375 45.4140625 C3.15703165 49.6331308 -0.06004649 52.25787916 -4.77734375 53.68359375 C-13.51659721 55.44461092 -21.10186379 53.10702475 -28.8515625 49.1015625 C-27.8615625 46.1315625 -27.8615625 46.1315625 -26.8515625 43.1015625 C-23.8515625 43.1015625 -23.8515625 43.1015625 -20.7265625 44.6015625 C-15.40217854 46.97046215 -10.28125972 46.89493302 -4.7890625 45.1015625 C-2.35369894 42.58763883 -2.25373657 40.57439684 -2.1875 37.13671875 C-3.56147963 32.92587531 -7.52229964 31.27015414 -11.26171875 29.35546875 C-13.08971879 28.49766938 -14.9246899 27.65930313 -16.76757812 26.83398438 C-20.88581896 24.88839384 -23.45804699 22.99757679 -25.8515625 19.1015625 C-26.87916363 14.57744845 -26.91228127 10.02796466 -24.640625 5.90234375 C-18.26612332 -1.8150098 -9.48817857 -2.98942613 0 0 Z " fill="#F7F7F7" transform="translate(337.8515625,24.8984375)"/>
<path d="M0 0 C2.97 0 5.94 0 9 0 C9.31227539 0.77077881 9.62455078 1.54155762 9.94628906 2.33569336 C11.12299079 5.23803557 12.30104838 8.13982289 13.47998047 11.04125977 C14.23377073 12.897534 14.98604278 14.7544245 15.73828125 16.61132812 C18.38656961 23.12611749 21.09769067 29.59418868 24 36 C24.38857178 34.9805127 24.77714355 33.96102539 25.17749023 32.91064453 C26.61704468 29.13453193 28.05794993 25.358936 29.49926758 21.58349609 C30.12333548 19.94822058 30.74703512 18.31280447 31.37036133 16.67724609 C32.26547412 14.32873217 33.16190253 11.98072414 34.05859375 9.6328125 C34.3377916 8.89942657 34.61698944 8.16604065 34.90464783 7.41043091 C36.88612829 2.22774341 36.88612829 2.22774341 38 0 C40.97 0 43.94 0 47 0 C44.85551357 6.70498893 42.36149403 13.17022759 39.62109375 19.65234375 C39.20835709 20.6336879 38.79562042 21.61503204 38.37037659 22.62611389 C37.50392346 24.68318824 36.63572912 26.73952998 35.76586914 28.79516602 C34.4321778 31.95008998 33.10743164 35.10867251 31.78320312 38.26757812 C30.93803718 40.27106003 30.09235256 42.27432322 29.24609375 44.27734375 C28.85022568 45.22310776 28.4543576 46.16887177 28.04649353 47.14329529 C27.67593338 48.01502884 27.30537323 48.88676239 26.92358398 49.78491211 C26.59954086 50.55274521 26.27549774 51.32057831 25.94163513 52.11167908 C25 54 25 54 23 56 C19.06443125 48.49362253 15.869075 40.69587125 12.625 32.875 C11.79044162 30.86933639 10.95506107 28.8640186 10.11907959 26.85894775 C9.56786822 25.53622691 9.01760819 24.21310919 8.46832275 22.8895874 C7.09065092 19.57760969 5.69124938 16.27759809 4.24902344 12.99316406 C3.96956879 12.35396027 3.69011414 11.71475647 3.40219116 11.05618286 C2.63242425 9.30129159 1.85621201 7.54923157 1.07958984 5.79736328 C0 3 0 3 0 0 Z " fill="#F8F8F8" transform="translate(255,24)"/>
<path d="M0 0 C11.88 0 23.76 0 36 0 C36 2.64 36 5.28 36 8 C31.38 8 26.76 8 22 8 C22 23.18 22 38.36 22 54 C19.36 54 16.72 54 14 54 C14 38.82 14 23.64 14 8 C9.38 8 4.76 8 0 8 C0 5.36 0 2.72 0 0 Z " fill="#FAFAFA" transform="translate(106,24)"/>
<path d="M0 0 C3 0.125 3 0.125 4 1.125 C4.125 4.125 4.125 4.125 4 7.125 C3 8.125 3 8.125 0.0625 8.3125 C-3 8.125 -3 8.125 -5 6.125 C-4.27477017 0.17811542 -4.27477017 0.17811542 0 0 Z " fill="#DFDFDF" transform="translate(127,117.875)"/>
<path d="M0 0 C0.33 0.66 0.66 1.32 1 2 C-1.31 2.66 -3.62 3.32 -6 4 C-7.00217064 7.58327753 -7.00217064 7.58327753 -6 11 C-3.69 11 -1.38 11 1 11 C1 11.99 1 12.98 1 14 C-5.27586207 14.48275862 -5.27586207 14.48275862 -8.4375 12.375 C-10.47161336 9.28314769 -10.60605429 7.63632575 -10 4 C-7.16463433 -0.14399597 -4.86205069 -0.44200461 0 0 Z " fill="#E2E2E2" transform="translate(119,112)"/>
<path d="M0 0 C0.66 0 1.32 0 2 0 C2 2.31 2 4.62 2 7 C3.65 7 5.3 7 7 7 C7 9.64 7 12.28 7 15 C6.34 15 5.68 15 5 15 C5 12.69 5 10.38 5 8 C4.01 8.495 4.01 8.495 3 9 C2.34227572 12.02934491 2.34227572 12.02934491 2 15 C1.34 15 0.68 15 0 15 C0 10.05 0 5.1 0 0 Z " fill="#D8D8D8" transform="translate(211,111)"/>
<path d="M0 0 C0.78375 0.04125 1.5675 0.0825 2.375 0.125 C2.705 1.445 3.035 2.765 3.375 4.125 C2.385 4.455 1.395 4.785 0.375 5.125 C1.035 5.455 1.695 5.785 2.375 6.125 C2.375 6.785 2.375 7.445 2.375 8.125 C0.395 8.125 -1.585 8.125 -3.625 8.125 C-4.25 5.25 -4.25 5.25 -4.625 2.125 C-2.625 0.125 -2.625 0.125 0 0 Z " fill="#C1C1C1" transform="translate(159.625,117.875)"/>
<path d="M0 0 C0.78375 0.04125 1.5675 0.0825 2.375 0.125 C2.705 1.445 3.035 2.765 3.375 4.125 C2.385 4.455 1.395 4.785 0.375 5.125 C1.035 5.455 1.695 5.785 2.375 6.125 C2.375 6.785 2.375 7.445 2.375 8.125 C0.37545254 8.16754356 -1.62541636 8.16580783 -3.625 8.125 C-4.625 7.125 -4.625 7.125 -4.8125 4.6875 C-4.54653904 1.05270021 -3.63803315 0.17323967 0 0 Z " fill="#DFDFDF" transform="translate(195.625,117.875)"/>
<path d="M0 0 C1.2065625 0.0309375 1.2065625 0.0309375 2.4375 0.0625 C2.7675 1.3825 3.0975 2.7025 3.4375 4.0625 C2.4475 4.3925 1.4575 4.7225 0.4375 5.0625 C1.0975 5.3925 1.7575 5.7225 2.4375 6.0625 C2.4375 6.7225 2.4375 7.3825 2.4375 8.0625 C0.0625 8.1875 0.0625 8.1875 -2.5625 8.0625 C-3.2225 7.4025 -3.8825 6.7425 -4.5625 6.0625 C-3.83457637 0.09352625 -3.83457637 0.09352625 0 0 Z " fill="#E5E5E5" transform="translate(230.5625,117.9375)"/>
<path d="M0 0 C2.33294775 -0.04241723 4.66702567 -0.04092937 7 0 C8 1 8 1 8.0625 4.5625 C8.041875 5.696875 8.02125 6.83125 8 8 C7.01 8 6.02 8 5 8 C5 6.02 5 4.04 5 2 C4.01 2 3.02 2 2 2 C2 3.98 2 5.96 2 8 C1.34 8 0.68 8 0 8 C0 5.36 0 2.72 0 0 Z " fill="#C2C2C2" transform="translate(134,118)"/>
<path d="M0 0 C0.99 0 1.98 0 3 0 C3 1.32 3 2.64 3 4 C3.66 4 4.32 4 5 4 C5 4.66 5 5.32 5 6 C4.34 6 3.68 6 3 6 C3 7.98 3 9.96 3 12 C2.01 12 1.02 12 0 12 C-1.28571429 3.42857143 -1.28571429 3.42857143 0 0 Z " fill="#BDBDBD" transform="translate(175,114)"/>
<path d="M0 0 C2.31 0 4.62 0 7 0 C7 2.64 7 5.28 7 8 C6.34 8 5.68 8 5 8 C5 6.02 5 4.04 5 2 C4.01 2 3.02 2 2 2 C2 3.98 2 5.96 2 8 C1.34 8 0.68 8 0 8 C0 5.36 0 2.72 0 0 Z " fill="#D7D7D7" transform="translate(145,118)"/>
<path d="M0 0 C1.65 0 3.3 0 5 0 C4.67 0.66 4.34 1.32 4 2 C3.34 1.67 2.68 1.34 2 1 C2 1.66 2 2.32 2 3 C2.99 3.33 3.98 3.66 5 4 C4.67 5.32 4.34 6.64 4 8 C2.35 8 0.7 8 -1 8 C-1 7.34 -1 6.68 -1 6 C0.32 6.33 1.64 6.66 3 7 C3 6.34 3 5.68 3 5 C1.68 4.34 0.36 3.68 -1 3 C-0.67 2.01 -0.34 1.02 0 0 Z " fill="#D8D8D8" transform="translate(237,118)"/>
<path d="M0 0 C0.66 0 1.32 0 2 0 C2 1.32 2 2.64 2 4 C2.66 4 3.32 4 4 4 C4 4.66 4 5.32 4 6 C3.34 6 2.68 6 2 6 C2 7.98 2 9.96 2 12 C1.34 12 0.68 12 0 12 C-1.28571429 3.42857143 -1.28571429 3.42857143 0 0 Z " fill="#F1F1F1" transform="translate(185,114)"/>
<path d="M0 0 C0.99 0.33 1.98 0.66 3 1 C2.67 2.65 2.34 4.3 2 6 C0.68 5.34 -0.64 4.68 -2 4 C-1.34 2.68 -0.68 1.36 0 0 Z " fill="#383838" transform="translate(126,119)"/>
<path d="M0 0 C2.475 0.495 2.475 0.495 5 1 C4.01 1.33 3.02 1.66 2 2 C2 3.98 2 5.96 2 8 C1.34 8 0.68 8 0 8 C0 5.36 0 2.72 0 0 Z " fill="#D6D6D6" transform="translate(134,118)"/>
<path d="M0 0 C1.65 0 3.3 0 5 0 C5 0.99 5 1.98 5 3 C3.02 3.66 1.04 4.32 -1 5 C-0.67 3.35 -0.34 1.7 0 0 Z " fill="#9C9C9C" transform="translate(229,119)"/>
<path d="M0 0 C1.65 0 3.3 0 5 0 C5 0.99 5 1.98 5 3 C1.25 4.125 1.25 4.125 -1 3 C-0.67 2.01 -0.34 1.02 0 0 Z " fill="#8F8F8F" transform="translate(194,119)"/>
</svg>
